<svg version="1.2" xmlns="http://www.w3.org/2000/svg" viewBox="0 0 321 321" width="321" height="321">
	<title>image</title>
	<style>
		.s0 { fill: #de3730 } 
	</style>
	<g id="Layer">
		<path id="Layer" class="s0" d="m30.4 318.6q-2.9 0.2-5.8-0.2-2.9-0.4-5.7-1.4-2.8-0.9-5.3-2.4-2.6-1.4-4.8-3.3c-11.7-11.8-11.7-31 0-42.8l257.8-257.8c12.3-11.5 31.5-10.9 43 1.4 10.3 11.1 10.9 28.1 1.4 39.9l-259.4 259.3q-2.1 1.9-4.6 3.3-2.6 1.4-5.3 2.4-2.7 0.9-5.6 1.3-2.8 0.4-5.7 0.3z"/>
		<path id="Layer" class="s0" d="m287.9 318.6q-3 0-5.9-0.6-2.9-0.6-5.6-1.7-2.7-1.2-5.2-2.8-2.5-1.6-4.6-3.7l-257.8-257.8c-10.9-12.8-9.4-31.9 3.3-42.9 11.4-9.7 28.2-9.7 39.5 0l259.4 257.9c12.2 11.4 12.9 30.6 1.4 42.9q-0.7 0.7-1.4 1.4-2.4 2-5.1 3.6-2.7 1.5-5.7 2.4-3 1-6.1 1.3-3.1 0.3-6.2 0z"/>
	</g>
</svg>