<svg xmlns="http://www.w3.org/2000/svg" width="157" height="24" fill="currentColor" viewBox="0 0 158 24"><path fill-rule="evenodd" d="M22.486 7.312a5.98 5.98 0 0 1-.273 2.51 6.048 6.048 0 0 1 .747 7.088 5.979 5.979 0 0 1-3.998 2.9A6.047 6.047 0 0 1 13.19 24a5.976 5.976 0 0 1-4.51-2.01 6.047 6.047 0 0 1-6.512-2.902 5.98 5.98 0 0 1-.513-4.91 6.048 6.048 0 0 1-.745-7.09 5.982 5.982 0 0 1 3.998-2.901A6.048 6.048 0 0 1 10.677 0a5.979 5.979 0 0 1 4.51 2.01 6.047 6.047 0 0 1 6.512 2.902c.43.734.699 1.553.787 2.4ZM10.313 21.39c.808.674 1.732 1.041 2.926 1.041 2.34 0 4.447-1.968 4.447-4.5v-5.577a.072.072 0 0 0-.04-.055l-2.02-1.166v6.736a.777.777 0 0 1-.392.68l-4.779 2.76a3.255 3.255 0 0 1-.142.081Zm-7.32-6.1a4.482 4.482 0 0 0 .536 3.014 4.502 4.502 0 0 0 6.143 1.646l4.831-2.79a.071.071 0 0 0 .029-.061v-2.333l-5.834 3.369a.777.777 0 0 1-.785 0l-4.779-2.76a6.528 6.528 0 0 1-.142-.085ZM4.61 5.9a4.483 4.483 0 0 0-2.34 1.972 4.502 4.502 0 0 0 1.648 6.141l4.83 2.792a.073.073 0 0 0 .069-.006l2.02-1.166-5.834-3.369a.774.774 0 0 1-.392-.68V5.9Zm8.421 2.465 5.834 3.369a.775.775 0 0 1 .39.679v5.686a4.499 4.499 0 0 0 .695-8.116l-4.83-2.79a.073.073 0 0 0-.069.006l-2.02 1.166Zm7.703.256.142.085a4.498 4.498 0 0 0-6.68-4.658l-4.83 2.787a.073.073 0 0 0-.029.062V9.23l5.834-3.37a.779.779 0 0 1 .785 0l4.779 2.761ZM6.219 11.7l2.02 1.166.003-6.734a.777.777 0 0 1 .393-.68l4.779-2.76c.042-.026.105-.06.142-.08a4.498 4.498 0 0 0-7.377 3.453v5.58a.07.07 0 0 0 .04.055ZM11.934 9l-2.598 1.5v3l2.598 1.5 2.599-1.5v-3L11.935 9Z" clip-rule="evenodd"></path><path d="M86.888 5.287v13.12H84.55V5.287h2.34Zm-11 0h2.65l4.97 13.12h-2.357l-1.133-2.997h-5.665l-1.114 2.997h-2.321l4.97-13.12Zm1.28 2.595-2.047 5.482h4.13l-2.084-5.482ZM61.974 18.407V8.813h2.193v1.024a3.385 3.385 0 0 1 2.649-1.206c2.01 0 3.216 1.389 3.216 3.453v6.323H67.84v-5.683c0-1.188-.475-2.047-1.68-2.047-.988 0-1.993.731-1.993 2.102v5.628h-2.192Zm-5.428.201c-2.741 0-4.66-2.029-4.66-4.989 0-2.814 1.9-4.988 4.569-4.988 2.777 0 4.257 2.101 4.257 4.732v.731h-6.724c.164 1.645 1.15 2.65 2.558 2.65 1.078 0 1.937-.548 2.23-1.535l1.881.713c-.676 1.68-2.192 2.686-4.111 2.686Zm-.11-8.132c-1.133 0-2.01.676-2.339 1.974h4.404c-.018-1.06-.676-1.974-2.065-1.974Zm-9.478 8.132c-1.243 0-2.157-.494-2.76-1.206v4.294h-2.193V8.813h2.193v1.024c.603-.713 1.517-1.206 2.76-1.206 2.686 0 4.22 2.266 4.22 4.988 0 2.723-1.534 4.989-4.22 4.989Zm-2.814-5.263v.567c0 1.772 1.023 2.777 2.375 2.777 1.59 0 2.449-1.242 2.449-3.07 0-1.827-.86-3.07-2.449-3.07-1.352 0-2.375.987-2.375 2.796Zm-15.687-1.498c0-3.984 2.558-6.761 6.103-6.761s6.103 2.777 6.103 6.76c0 3.984-2.558 6.762-6.103 6.762s-6.103-2.778-6.103-6.761Zm9.867 0c0-2.85-1.553-4.696-3.764-4.696s-3.764 1.845-3.764 4.696c0 2.85 1.553 4.696 3.764 4.696 2.21 0 3.764-1.846 3.764-4.696Zm107.383.84v5.72h-1.644V8.85h1.644v1.297a3.208 3.208 0 0 1 2.759-1.48c1.28 0 2.175.64 2.65 1.627.53-.786 1.553-1.627 3.052-1.627 1.973 0 3.161 1.407 3.161 3.436v6.304h-1.645V12.54c0-1.334-.548-2.339-1.9-2.339-1.096 0-2.266.932-2.266 2.485v5.72h-1.644V12.54c0-1.334-.549-2.339-1.901-2.339-1.096 0-2.266.932-2.266 2.485Zm-3.072-3.874v1.663a3.758 3.758 0 0 0-.804-.073c-1.389 0-2.503 1.097-2.503 2.778v5.226h-1.645V8.85h1.645v1.626c.42-.968 1.352-1.7 2.649-1.7.256 0 .494.02.658.037Zm-6.66 4.825c0 2.96-1.827 4.97-4.44 4.97-2.613 0-4.44-2.01-4.44-4.97s1.827-4.97 4.44-4.97c2.613 0 4.44 2.01 4.44 4.97Zm-7.217 0c0 2.174 1.096 3.563 2.777 3.563s2.778-1.389 2.778-3.563c0-2.193-1.097-3.582-2.778-3.582s-2.777 1.389-2.777 3.582Zm-2.005-8.516v1.462c-.274-.036-.439-.036-.713-.036-.968 0-1.498.42-1.498 1.644v.658h2.12v1.407h-2.12v8.15h-1.645v-8.15h-2.225V8.85h2.225v-.767c0-1.864 1.024-2.997 2.979-2.997.329 0 .511.018.877.036Z"></path><path d="M117.195 16.123v-5.866h-1.48V8.85h1.48V6.054h1.626V8.85h2.174v1.407h-2.174v5.61c0 1.005.493 1.188 1.334 1.188a4.03 4.03 0 0 0 1.041-.11v1.407c-.42.091-.895.146-1.443.146-1.626 0-2.558-.548-2.558-2.375Zm-7.097 2.448c-1.736 0-3.143-1.023-3.143-2.74 0-1.901 1.48-2.687 3.618-3.125l2.321-.476v-.402c0-1.096-.603-1.717-1.882-1.717-1.206 0-1.919.566-2.211 1.626l-1.554-.402c.457-1.553 1.864-2.668 3.82-2.668 2.137 0 3.453 1.042 3.453 3.088v4.66c0 .621.384.822 1.023.676v1.316c-1.461.183-2.302-.165-2.503-1.078-.585.749-1.645 1.242-2.942 1.242Zm2.796-3.417V13.51l-1.864.402c-1.462.292-2.449.694-2.449 1.845 0 .932.676 1.48 1.718 1.48 1.407 0 2.595-.858 2.595-2.083Zm-7.551-9.867v13.12h-1.645V5.287h1.645Zm-10.658 7.62v5.5H92.93V5.287h5.006c2.778 0 4.55 1.297 4.55 3.8 0 2.468-1.772 3.82-4.55 3.82h-3.252Zm0-1.517h3.161c1.864 0 2.905-.822 2.905-2.302s-1.041-2.285-2.905-2.285h-3.161v4.587Z"></path></svg>