<svg width="132" height="38" viewBox="0 0 132 38" fill="none" xmlns="http://www.w3.org/2000/svg">
<path d="M22.6559 24.9256C22.3238 24.8234 22.2983 24.3636 22.6814 24.2104C29.2712 21.0943 28.837 14.0192 28.837 14.0192C28.8114 6.84201 23.5498 0.201162 15.07 0.252246C5.61952 0.303329 -0.0507412 7.73597 0.00034225 16.5223C0.0769674 31.8984 11.8262 37.773 15.4786 37.7475L15.4531 31.643C15.4531 30.6724 15.4531 29.9062 16.0405 29.9062C16.0405 29.9062 19.8207 33.6864 24.0096 33.6864C30.5483 33.6608 32.7704 28.1694 32.7704 28.1694L22.6559 24.9256ZM15.0955 20.2259C11.7495 20.2514 9.04212 17.544 9.01657 14.198C8.99103 10.8521 11.6985 8.14464 15.0444 8.1191C18.3904 8.09356 21.0978 10.801 21.1234 14.1469C21.1234 17.4929 18.4159 20.2003 15.0955 20.2259Z" fill="currentColor"/>
<path fill-rule="evenodd" clip-rule="evenodd" d="M106.305 6.43342C106.305 5.02862 107.429 3.90479 108.834 3.90479C110.238 3.90479 111.362 5.05416 111.362 6.43342C111.362 7.83821 110.238 8.96205 108.834 8.96205C107.429 8.96205 106.305 7.83821 106.305 6.43342ZM106.79 11.3375H110.877V28.5015H106.79V11.3375ZM127.914 5.36082V11.0566V13.5597C127.301 12.5636 125.436 10.8012 122.167 10.8012C117.518 10.8012 113.534 14.326 113.534 19.8941C113.534 24.9002 116.931 29.038 122.218 29.038C125.717 29.038 127.352 27.3267 128.092 26.0241V28.5016H132V5.36082H127.914ZM126.688 23.6232C125.717 24.5937 124.363 25.1812 122.882 25.1812C119.715 25.1812 117.62 22.8058 117.62 19.8941V19.8685C117.62 17.1866 119.561 14.6069 122.907 14.6069C124.389 14.6069 125.691 15.1688 126.637 16.1139C127.582 17.0334 128.169 18.3105 128.169 19.7919C128.22 21.2989 127.658 22.6526 126.688 23.6232ZM89.4733 13.8405C90.6993 12.1036 92.7171 10.801 95.5522 10.801C101.555 10.801 104.109 15.8838 104.083 20.0727C104.083 24.9511 100.609 29.0378 95.5778 29.0378C92.2318 29.0378 90.4183 27.3265 89.7287 26.2282V28.5014V34.5037H85.642V11.3374H89.4733V13.8405ZM94.786 25.2065C97.9021 25.2065 99.9965 22.729 99.9965 19.9194H100.022V19.8939C100.022 17.4163 98.2341 14.6067 94.7604 14.6067C93.2535 14.6067 91.9764 15.1942 91.0313 16.1648C90.1118 17.1098 89.5499 18.438 89.5499 19.9449C89.5499 21.4264 90.1118 22.729 91.0569 23.674C92.0019 24.6191 93.3045 25.2065 94.786 25.2065ZM77.9794 13.8405C77.2386 12.4612 75.323 10.801 72.1814 10.801C67.354 10.801 63.4461 14.479 63.4461 19.8939C63.4461 24.7468 66.6644 29.0378 72.1814 29.0378C74.5823 29.0378 76.8811 28.0417 77.9794 26.0239V28.5014H82.066V11.3374H77.9794V13.8405ZM78.0049 20.0471C77.9538 20.89 77.7495 21.7073 77.3408 22.448C76.549 24.0061 75.0676 25.2065 72.7688 25.2065C69.0908 25.2065 67.5583 22.116 67.5583 19.996V19.9705C67.5583 17.3142 69.4229 14.6323 72.7433 14.6323C75.2209 14.6323 76.8044 16.0371 77.5196 17.6717C77.8772 18.3869 78.0304 19.2298 78.0049 20.0471ZM52.6931 5.33518C58.0313 5.33518 61.6327 7.96598 61.6327 12.9722C61.6327 16.88 58.8997 19.5364 54.9919 20.1749L62.9098 27.4288C62.1691 28.3483 61.0963 28.7059 60.0236 28.7059C57.827 28.7059 56.4477 27.863 54.6087 25.743C53.4594 24.4404 50.3433 20.839 50.3433 20.839C50.3433 20.839 50.0112 20.3537 49.4748 20.3537H49.2961V28.476H44.6475V5.33518H52.6931ZM51.8502 8.80886H49.3471V17.1355H51.8502C54.4299 17.1355 57.1885 16.0372 57.1885 12.9977C57.1885 10.1626 55.0429 8.80886 51.8502 8.80886Z" fill="currentColor"/>
</svg>
