<svg xmlns="http://www.w3.org/2000/svg" version="1.1" xmlns:xlink="http://www.w3.org/1999/xlink" x="0" y="0" viewBox="0 0 50 50" style="enable-background:new 0 0 512 512" xml:space="preserve" class="hovered-paths"><g><path fill="#a1a1f8" d="M49 24.506a8.603 8.603 0 0 1-7.503 8.527c-.122.03-.243.04-.365.05-.244.02-.487.03-.72.03H9.548a8.77 8.77 0 0 1-3.346-.689A8.626 8.626 0 0 1 1 24.506c0-3.894 2.596-7.18 6.165-8.234a8.589 8.589 0 0 1 8.568-7.888c.395 0 .8.04 1.196.101a8.568 8.568 0 0 1 8.183-5.982 8.622 8.622 0 0 1 8.213 5.982c.435-.06.882-.101 1.338-.101a8.578 8.578 0 0 1 8.568 8.02A8.567 8.567 0 0 1 49 24.506z" opacity="1" data-original="#a1a1f8"/><path fill="#7979f6" d="M48.994 24.51c0 4.747-3.85 8.597-8.587 8.597H9.59a8.596 8.596 0 0 1-7.609-4.588 8.618 8.618 0 0 0 5.735 2.185h30.816a8.598 8.598 0 0 0 8.597-8.597 8.53 8.53 0 0 0-.987-3.99 8.535 8.535 0 0 1 2.852 6.393z" opacity="1" data-original="#7979f6" class="hovered-path"/><path fill="#fff" d="M30.792 9.289a5.93 5.93 0 0 0-5.68-4.157.648.648 0 1 1 0-1.296A7.221 7.221 0 0 1 32.028 8.9a.649.649 0 0 1-1.237.39zM9.28 15.388a.65.65 0 0 1-.392-.828 7.306 7.306 0 0 1 4.825-4.538.648.648 0 1 1 .362 1.244 6.004 6.004 0 0 0-3.966 3.73.648.648 0 0 1-.829.392zM2.738 26.872a7.225 7.225 0 0 1 1.47-7.204.647.647 0 1 1 .964.866 5.936 5.936 0 0 0-1.208 5.915.648.648 0 0 1-1.226.423z" opacity=".4"/><path fill="#7979f6" d="M43.798 24.364v8.04c-.72.314-1.49.527-2.301.629-.122.03-.243.04-.365.05-.244.02-.487.03-.72.03H9.548a8.77 8.77 0 0 1-3.346-.689v-8.06a5.558 5.558 0 0 1 5.556-5.557h26.484a5.558 5.558 0 0 1 5.556 5.557z"/><path fill="#f8b838" d="M37.984 47.497H12.019A4.477 4.477 0 0 1 7.54 43.02V24.806a4.477 4.477 0 0 1 4.478-4.478h25.965a4.477 4.477 0 0 1 4.477 4.478V43.02a4.477 4.477 0 0 1-4.477 4.477z"/><path fill="#fff" d="M11.12 42.18V25.644c0-.823.668-1.49 1.49-1.49h24.781c.823 0 1.49.667 1.49 1.49V42.18c0 .82-.671 1.49-1.49 1.49H12.61a1.49 1.49 0 0 1-1.49-1.49z"/><path fill="#e3e2ff" d="M38.883 25.854v.023H14.968c-.938 0-1.704.766-1.704 1.704v16.096h-.435c-.949 0-1.704-.767-1.704-1.716V25.854c0-1.12.462-1.704 1.704-1.704h24.35c.937 0 1.704.766 1.704 1.704z"/><path fill="#ebaf21" d="M42.46 25.416v16.993a5.086 5.086 0 0 1-5.097 5.085H12.632a5.054 5.054 0 0 1-4.039-2.002 5.034 5.034 0 0 0 3.049 1.012h24.732a5.103 5.103 0 0 0 5.096-5.096V24.426a5.028 5.028 0 0 0-1.024-3.06 5.07 5.07 0 0 1 2.014 4.05z"/><path fill="#fff" d="M8.824 32.902V25.8a.492.492 0 0 1 .984 0v7.102a.492.492 0 0 1-.984 0zM8.824 36.777v-1.96a.492.492 0 0 1 .984 0v1.96a.492.492 0 0 1-.984 0zM23.848 21.26h7.103a.492.492 0 0 1 0 .985h-7.103a.492.492 0 0 1 0-.984z" opacity=".4"/><path fill="#2d2c2c" d="M19.305 34.653v-1.347h-3.024a.561.561 0 0 1-.406-.164.54.54 0 0 1-.169-.402v-.089c0-.138.04-.257.119-.357l3.113-3.976a.623.623 0 0 1 .496-.237h.198c.354 0 .575.25.575.575v3.847h.754c.222 0 .407.177.407.406a.398.398 0 0 1-.407.397h-.754v1.347a.446.446 0 0 1-.456.447.438.438 0 0 1-.446-.447zm-2.636-2.15h2.636V29.1z"/><path fill="#2d2c2c" d="M19.75 35.15a.488.488 0 0 1-.494-.496v-1.298h-2.974a.61.61 0 0 1-.442-.178.59.59 0 0 1-.184-.437v-.09c0-.149.044-.278.13-.389l3.113-3.975a.672.672 0 0 1 .535-.256h.198c.386 0 .625.276.625.625v3.797h.704c.24 0 .457.19.457.456a.448.448 0 0 1-.457.447h-.704v1.298a.496.496 0 0 1-.506.496zm-.316-7.02a.573.573 0 0 0-.456.218l-3.114 3.977a.51.51 0 0 0-.108.326v.09c0 .145.05.264.155.365.102.102.223.15.37.15h3.074v1.398a.39.39 0 0 0 .396.396.398.398 0 0 0 .407-.396v-1.398h.803c.187 0 .357-.14.357-.347a.356.356 0 0 0-.357-.357h-.803v-3.896c0-.293-.198-.526-.526-.526zm-.079 4.422h-2.788l.063-.08 2.725-3.517zm-2.585-.1h2.486v-3.204zM32.749 34.653v-1.347h-3.024a.566.566 0 0 1-.575-.566v-.089c0-.138.04-.257.119-.357l3.113-3.976a.623.623 0 0 1 .496-.237h.198c.353 0 .575.25.575.575v3.847h.754c.222 0 .407.177.407.406a.398.398 0 0 1-.407.397h-.754v1.347a.446.446 0 0 1-.456.447.438.438 0 0 1-.446-.447zm-2.637-2.15h2.637V29.1z"/><path fill="#2d2c2c" d="M33.195 35.15a.488.488 0 0 1-.496-.496v-1.298h-2.974a.615.615 0 0 1-.625-.615v-.09c0-.15.043-.28.13-.389l3.112-3.975a.672.672 0 0 1 .536-.256h.198c.385 0 .625.276.625.625v3.797h.704c.248 0 .456.198.456.456a.447.447 0 0 1-.456.447H33.7v1.298c0 .286-.23.496-.506.496zm-.317-7.02a.574.574 0 0 0-.456.218l-3.115 3.977a.506.506 0 0 0-.107.326v.09c0 .295.24.515.525.515h3.073v1.398c0 .221.17.396.397.396a.398.398 0 0 0 .406-.396v-1.398h.804a.348.348 0 0 0 .356-.347.355.355 0 0 0-.356-.357H33.6v-3.896c0-.293-.198-.526-.525-.526zm-.08 4.422H30.01l.063-.08 2.725-3.517zm-2.584-.1h2.485v-3.204z"/><circle cx="25.292" cy="31.717" r="3.034" fill="#fb6559"/><path fill="#ef5543" d="M28.327 31.719a3.037 3.037 0 0 1-3.037 3.031 2.997 2.997 0 0 1-2.042-.793 3.032 3.032 0 0 0 3.42-4.948 3.046 3.046 0 0 1 1.66 2.71z"/><path fill="#fff" d="M26.558 32.572a.34.34 0 0 1 0 .475.328.328 0 0 1-.24.095.325.325 0 0 1-.235-.095l-.871-.872-.878.872a.325.325 0 0 1-.234.095.328.328 0 0 1-.24-.095.34.34 0 0 1 0-.475l.877-.872-.877-.877a.34.34 0 0 1 0-.475.34.34 0 0 1 .474 0l.878.877.871-.877a.34.34 0 0 1 .475 0 .34.34 0 0 1 0 .475l-.871.877z"/><g fill="#2d2c2c"><path d="M15.037 40.745a.195.195 0 0 1-.059-.144v-2.683a.29.29 0 0 1 .086-.209.278.278 0 0 1 .207-.087h.058c.095 0 .178.044.247.134l1.73 2.5v-2.427c0-.058.02-.107.059-.147s.087-.06.143-.06.106.02.147.06a.2.2 0 0 1 .06.147v2.682a.28.28 0 0 1-.087.207.29.29 0 0 1-.21.085h-.053a.31.31 0 0 1-.238-.121l-1.74-2.513v2.432a.202.202 0 0 1-.207.202.195.195 0 0 1-.143-.058z"/><path d="M17.419 40.853h-.054a.364.364 0 0 1-.278-.14l-1.65-2.383V40.6c0 .07-.025.13-.075.18a.261.261 0 0 1-.36-.001.243.243 0 0 1-.074-.179v-2.683c0-.094.034-.176.1-.244a.328.328 0 0 1 .243-.102h.058c.112 0 .209.052.287.154l1.64 2.37v-2.267c0-.072.025-.132.073-.182a.258.258 0 0 1 .361-.001c.05.05.075.112.075.183v2.682a.342.342 0 0 1-.347.342zm-2.081-2.844.09.132 1.74 2.513a.26.26 0 0 0 .197.1h.054c.068 0 .125-.024.173-.072s.074-.103.074-.17v-2.683a.153.153 0 0 0-.046-.112.153.153 0 0 0-.219 0 .15.15 0 0 0-.045.112v2.587l-.09-.132-1.731-2.5c-.058-.075-.125-.113-.206-.113h-.058a.228.228 0 0 0-.17.074.238.238 0 0 0-.073.173v2.683c0 .043.015.08.044.108.059.06.16.058.22 0a.14.14 0 0 0 .046-.108zM18.237 39.635c0-.708.445-1.191 1.15-1.191.706 0 1.15.493 1.15 1.191 0 .69-.437 1.19-1.15 1.19-.704 0-1.15-.482-1.15-1.19zm1.892-.005c0-.525-.33-.813-.742-.813-.423 0-.74.286-.74.813 0 .545.333.823.74.823.4 0 .742-.28.742-.823z"/><path d="M19.387 40.875c-.744 0-1.2-.517-1.2-1.24 0-.718.45-1.241 1.2-1.241.734 0 1.2.514 1.2 1.241 0 .448-.182.864-.573 1.086-.18.103-.391.154-.627.154zm0-2.381c-.683 0-1.1.468-1.1 1.141 0 .674.419 1.14 1.1 1.14.68 0 1.1-.474 1.1-1.14 0-.67-.423-1.141-1.1-1.141zm0 2.008c-.435 0-.79-.298-.79-.872a.795.795 0 0 1 1.581 0c0 .577-.372.872-.79.872zm0-1.635c-.388 0-.691.257-.691.763 0 .512.307.773.691.773.363 0 .692-.251.692-.773 0-.496-.307-.763-.692-.763zM21.158 40.233v-1.394h-.32c-.024 0-.043-.007-.06-.024s-.025-.037-.025-.06c0-.03.013-.056.04-.078l.612-.597c.026-.027.052-.04.076-.04a.08.08 0 0 1 .06.026.09.09 0 0 1 .025.063v.36h.508a.17.17 0 0 1 .176.176c0 .047-.017.088-.05.123s-.074.051-.126.051h-.508v1.358c0 .116.028.19.084.222a.419.419 0 0 0 .209.047c.06 0 .12-.008.18-.027l.038-.009a.242.242 0 0 1 .052-.005.16.16 0 0 1 .112.048c.032.031.049.07.049.114 0 .07-.034.121-.104.158a.88.88 0 0 1-.373.08c-.436 0-.655-.197-.655-.592z"/><path d="M21.813 40.875c-.46 0-.705-.221-.705-.642v-1.344h-.27a.127.127 0 0 1-.095-.039.133.133 0 0 1-.04-.096c0-.03.01-.077.06-.116l.607-.595c.071-.069.156-.067.208-.011.025.028.038.06.038.097v.31h.458a.219.219 0 0 1 .225.226.221.221 0 0 1-.225.224h-.458v1.308c0 .066.01.151.06.18.08.045.217.053.348.014l.042-.01a.238.238 0 0 1 .209.056.2.2 0 0 1 .064.15c0 .09-.043.157-.13.202a.924.924 0 0 1-.396.086zm-.332-2.786c-.005 0-.017.003-.04.026l-.612.598c-.024.019-.027.032-.027.041s.004.018.011.026c.006.006.013.01.026.01h.369v1.443c0 .365.198.543.605.543a.85.85 0 0 0 .353-.076c.05-.028.074-.062.074-.113a.102.102 0 0 0-.034-.078.124.124 0 0 0-.118-.03l-.038.009c-.147.044-.32.036-.424-.026-.074-.042-.11-.13-.11-.265V38.79h.558a.117.117 0 0 0 .09-.038.12.12 0 0 0 .036-.087.118.118 0 0 0-.035-.09.12.12 0 0 0-.091-.036h-.558v-.41a.045.045 0 0 0-.011-.03.029.029 0 0 0-.024-.01zM23.912 40.745a.195.195 0 0 1-.059-.144v-2.75c0-.058.02-.106.059-.146s.087-.061.143-.061h1.75a.19.19 0 0 1 .192.193.189.189 0 0 1-.192.188h-1.543v.994h1.385c.054 0 .1.019.137.057.037.037.055.083.055.136s-.018.099-.055.135-.083.054-.137.054h-1.385v1.2a.202.202 0 0 1-.207.202.195.195 0 0 1-.143-.058z"/><path d="M24.055 40.853c-.07 0-.13-.024-.178-.073s-.074-.109-.074-.179v-2.75a.253.253 0 0 1 .252-.257h1.75a.238.238 0 0 1 .242.243.23.23 0 0 1-.07.171.24.24 0 0 1-.173.068h-1.492v.893h1.335c.068 0 .126.025.173.072.046.046.07.104.07.171s-.024.125-.071.171a.24.24 0 0 1-.172.068h-1.335v1.15a.253.253 0 0 1-.257.252zm0-3.16a.14.14 0 0 0-.107.047.15.15 0 0 0-.045.111v2.75c0 .043.015.08.044.108.06.06.16.058.22 0a.14.14 0 0 0 .046-.108v-1.25h1.434a.136.136 0 0 0 .102-.04.13.13 0 0 0 .04-.099.137.137 0 0 0-.04-.101.136.136 0 0 0-.102-.042h-1.434v-1.093h1.591a.136.136 0 0 0 .102-.04.13.13 0 0 0 .04-.099.138.138 0 0 0-.041-.102.133.133 0 0 0-.1-.041zM26.119 39.635c0-.708.444-1.191 1.15-1.191s1.15.493 1.15 1.191c0 .69-.437 1.19-1.15 1.19-.708 0-1.15-.485-1.15-1.19zm1.891-.005c0-.527-.334-.813-.74-.813-.424 0-.742.286-.742.813 0 .538.332.823.741.823.394 0 .741-.28.741-.823z"/><path d="M27.27 40.875c-.748 0-1.201-.52-1.201-1.24 0-.718.45-1.241 1.2-1.241.733 0 1.2.514 1.2 1.241 0 .721-.463 1.24-1.2 1.24zm0-2.381c-.684 0-1.101.468-1.101 1.141 0 .678.422 1.14 1.1 1.14.68 0 1.1-.474 1.1-1.14 0-.67-.423-1.141-1.1-1.141zm0 2.008c-.436 0-.792-.302-.792-.872 0-1.168 1.582-1.146 1.582 0 0 .577-.372.872-.79.872zm0-1.635c-.396 0-.692.267-.692.763 0 .51.31.773.691.773.363 0 .692-.251.692-.773 0-.5-.315-.763-.692-.763zM28.901 39.945v-1.277c0-.118.097-.202.206-.202.119 0 .202.093.202.202V39.9c0 .365.165.548.495.548.314 0 .543-.186.737-.43v-1.35c0-.056.02-.104.06-.143.041-.04.09-.059.147-.059s.104.02.143.059.059.087.059.143v1.928a.203.203 0 0 1-.202.207.207.207 0 0 1-.207-.207v-.183c-.298.328-.56.413-.836.413-.5 0-.804-.384-.804-.881z"/><path d="M29.705 40.875a.827.827 0 0 1-.456-.125c-.271-.172-.398-.48-.398-.805v-1.277c0-.326.508-.338.508 0V39.9c0 .34.142.498.445.498.291 0 .502-.171.687-.398v-1.332c0-.07.025-.13.075-.18a.26.26 0 0 1 .36.002.243.243 0 0 1 .074.178v1.928a.254.254 0 1 1-.51 0v-.06c-.265.254-.503.34-.785.34zm-.598-2.359a.153.153 0 0 0-.156.152v1.277c0 .29.108.566.352.721.113.073.247.11.402.11.434 0 .598-.207.885-.493v.313c0 .14.172.21.265.112a.153.153 0 0 0 .045-.112v-1.928a.147.147 0 0 0-.044-.108.159.159 0 0 0-.22.001.142.142 0 0 0-.046.107v1.367l-.01.013c-.207.26-.445.45-.776.45-.356 0-.545-.207-.545-.598v-1.232a.15.15 0 0 0-.152-.152zM31.651 40.745a.194.194 0 0 1-.058-.144v-1.928a.203.203 0 0 1 .348-.146c.106.106.052.21.06.33.302-.33.563-.413.837-.413.508 0 .804.396.804.88v1.277a.203.203 0 0 1-.207.202c-.056 0-.104-.02-.143-.058s-.059-.087-.059-.144V39.37c0-.366-.165-.548-.494-.548-.316 0-.54.184-.737.43v1.35a.19.19 0 0 1-.06.143.201.201 0 0 1-.146.058.196.196 0 0 1-.145-.058z"/><path d="M33.435 40.853c-.07 0-.13-.024-.179-.073s-.073-.109-.073-.179V39.37c0-.34-.141-.498-.444-.498-.293 0-.5.17-.688.398v1.331a.238.238 0 0 1-.076.18.259.259 0 0 1-.36-.001.245.245 0 0 1-.071-.179v-1.928c0-.07.023-.13.07-.18a.254.254 0 0 1 .362-.001c.1.1.062.141.075.242.275-.257.504-.34.787-.34.533 0 .854.415.854.93v1.277c0 .07-.025.13-.075.18a.258.258 0 0 1-.182.072zm-.696-2.081c.356 0 .544.206.544.598V40.6c0 .043.015.08.044.108.06.06.156.06.22 0a.142.142 0 0 0 .045-.108v-1.276c0-.46-.277-.831-.754-.831-.555 0-.785.423-.886.492-.006-.168.055-.323-.046-.424a.153.153 0 0 0-.263.111v1.928c0 .045.014.08.043.108a.16.16 0 0 0 .22 0 .138.138 0 0 0 .046-.108v-1.366l.01-.014c.21-.26.445-.449.777-.449zM34.124 39.635c0-.734.514-1.191 1.088-1.191.293 0 .548.114.767.342v-1.102c0-.06.02-.11.062-.148.04-.038.089-.058.145-.058s.106.02.144.06c.039.04.058.09.058.146v2.917c0 .11-.084.202-.202.202a.204.204 0 0 1-.207-.202v-.117a1.033 1.033 0 0 1-.767.342c-.573 0-1.088-.457-1.088-1.19zm1.855.472v-.944a.973.973 0 0 0-.71-.337c-.427 0-.736.274-.736.81 0 .532.309.808.736.808a.964.964 0 0 0 .71-.337z"/><path d="M35.212 40.875c-.605 0-1.138-.485-1.138-1.24 0-.756.532-1.241 1.138-1.241.267 0 .508.092.717.274v-.984c0-.074.026-.136.077-.184a.26.26 0 0 1 .36.004c.048.05.072.11.072.18v2.917a.249.249 0 0 1-.252.252.252.252 0 0 1-.257-.252c-.209.183-.45.274-.717.274zm0-2.381c-.549 0-1.039.435-1.039 1.141s.492 1.14 1.039 1.14a.99.99 0 0 0 .731-.325l.086-.09v.241c0 .199.31.204.31 0v-2.917a.149.149 0 0 0-.045-.11c-.057-.063-.157-.06-.22-.002a.15.15 0 0 0-.045.112v1.226c-.1-.078-.31-.416-.817-.416zm.057 2c-.448 0-.786-.291-.786-.859 0-.567.337-.86.786-.86.469 0 .66.308.76.368v.983l-.013.015a1.18 1.18 0 0 1-.336.256.912.912 0 0 1-.41.097zm0-1.619c-.45 0-.686.309-.686.76 0 .45.236.759.686.759.128 0 .252-.03.366-.087.109-.055.207-.129.294-.22v-.905a.923.923 0 0 0-.66-.307z"/></g></g></svg>