<svg xmlns="http://www.w3.org/2000/svg" version="1.1" xmlns:xlink="http://www.w3.org/1999/xlink" x="0" y="0" viewBox="0 0 128 128" style="enable-background:new 0 0 512 512" xml:space="preserve"><g><path fill="#71a58a" d="M64.001 10.846v19.558a33.424 33.424 0 0 1 18.109 5.305l10.55-16.483a53.302 53.302 0 0 0-28.659-8.38z" opacity="1" data-original="#71a58a"/><path fill="#99734a" d="M107.013 32.756a52.997 52.997 0 0 0-14.353-13.53L82.109 35.71c7.374 4.73 12.775 12.258 14.705 21.09l19.115-4.195a52.95 52.95 0 0 0-8.916-19.849z" opacity="1" data-original="#99734a"/><path fill="#ffeead" d="M87.756 87.755c-6.079 6.08-14.478 9.84-23.755 9.84v19.559a52.908 52.908 0 0 0 31.244-10.142 53.548 53.548 0 0 0 6.35-5.419zM64 97.596a33.42 33.42 0 0 1-18.108-5.305l-10.551 16.483a53.305 53.305 0 0 0 28.66 8.38z" opacity="1" data-original="#ffeead"/><path fill="#96ceb4" d="M32.757 20.987a53.548 53.548 0 0 0-6.35 5.419C13.399 39.383 8.264 57.994 12.072 75.395a52.939 52.939 0 0 0 8.916 19.848 52.981 52.981 0 0 0 14.353 13.53L45.892 92.29C36.58 86.318 30.404 75.884 30.404 64c0-18.555 15.041-33.596 33.596-33.596h.001V10.846a52.914 52.914 0 0 0-31.244 10.141z" opacity="1" data-original="#96ceb4"/><path fill="#ffcc5c" d="M91.709 82.993a33.803 33.803 0 0 1-3.953 4.763l13.838 13.838a52.762 52.762 0 0 0 6.255-7.538z" opacity="1" data-original="#ffcc5c"/><path fill="#ff6f69" d="M115.929 52.605 96.814 56.8c.507 2.321.782 4.728.782 7.201a33.44 33.44 0 0 1-5.886 18.993l16.14 11.063c8.305-12.121 11.201-27.191 8.079-41.452z" opacity="1" data-original="#ff6f69"/><path fill="#ffcc5c" d="M90.172 49.609a1.715 1.715 0 0 0-2.408-.273L63.896 68.357l-12.189-9.404a1.713 1.713 0 0 0-2.296.183L36.849 72.52a1.715 1.715 0 0 0 1.249 2.887c.456 0 .912-.182 1.249-.54l11.498-12.249 12.02 9.274a1.714 1.714 0 0 0 2.115-.016L89.9 52.017c.74-.59.862-1.668.272-2.408z" opacity="1" data-original="#ffcc5c"/><path fill="#ff6f69" d="M38.098 70.26a3.433 3.433 0 1 0 0 6.866 3.433 3.433 0 0 0 0-6.866zM51.118 57.284a3.433 3.433 0 1 0 0 6.866 3.433 3.433 0 0 0 0-6.866zM64.051 66.964a3.433 3.433 0 1 0 0 6.866 3.433 3.433 0 0 0 0-6.866z" opacity="1" data-original="#ff6f69"/><circle cx="75.835" cy="61.223" r="3.433" fill="#ff6f69" opacity="1" data-original="#ff6f69"/><path fill="#ff6f69" d="M88.317 46.724a3.433 3.433 0 1 0 0 6.866 3.433 3.433 0 0 0 0-6.866z" opacity="1" data-original="#ff6f69"/></g></svg>