<svg xmlns="http://www.w3.org/2000/svg" version="1.1" xmlns:xlink="http://www.w3.org/1999/xlink" x="0" y="0" viewBox="0 0 468 468" style="enable-background:new 0 0 512 512" xml:space="preserve"><g><path fill="#f0e8f9" d="M308.305 58.697V43.463l-9.985-1.45a33.527 33.527 0 0 0-3.138-7.556l6.035-8.074-10.792-10.773-8.089 6.024a33.71 33.71 0 0 0-7.57-3.132l-1.452-9.967h-15.262l-1.452 9.967a33.71 33.71 0 0 0-7.57 3.132l-8.089-6.024-10.792 10.772 6.035 8.074a33.592 33.592 0 0 0-3.138 7.556l-9.985 1.45v15.235l9.985 1.45a33.527 33.527 0 0 0 3.138 7.556l-6.035 8.074 10.792 10.772 8.089-6.024a33.71 33.71 0 0 0 7.57 3.132l1.452 9.967h15.262l1.452-9.967a33.71 33.71 0 0 0 7.57-3.132l8.089 6.024 10.792-10.772-6.035-8.074a33.592 33.592 0 0 0 3.138-7.556z" opacity="1" data-original="#f0e8f9"/><circle cx="265.474" cy="51.08" r="23.096" fill="#ffffff" transform="translate(-.144 .756)" opacity="1" data-original="#ffffff"/><path fill="#ffffff" d="M422.146 131.327v245.996H39.931V131.327z" opacity="1" data-original="#ffffff"/><path fill="#131c46" d="M441.881 377.322V122.228c0-5.874-4.762-10.636-10.636-10.636H30.832c-5.874 0-10.636 4.762-10.636 10.636v255.094H5.048v20.714c0 17.623 14.286 31.909 31.909 31.909H425.12c17.623 0 31.909-14.286 31.909-31.909v-20.714zM39.931 131.327h382.215v245.996H39.931z" opacity="1" data-original="#131c46"/><path fill="#0b1226" d="M260.268 404.37h-58.46c-8.811 0-15.955-7.143-15.955-15.955v-11.093h90.369v11.093c0 8.812-7.143 15.955-15.954 15.955z" opacity="1" data-original="#0b1226"/><path fill="#865acc" d="M142.221 240.331h39.474v136.991h-39.474z" opacity="1" data-original="#865acc"/><path fill="#6a42ba" d="M142.221 240.331h11.848v136.991h-11.848z" opacity="1" data-original="#6a42ba"/><path fill="#ffc31a" d="M73.141 260.068h39.474v117.254H73.141z" opacity="1" data-original="#ffc31a"/><path fill="#ffaf00" d="M73.141 260.068h11.848v117.254H73.141z" opacity="1" data-original="#ffaf00"/><path fill="#f0e8f9" d="M280.381 250.2h39.474v127.123h-39.474z" opacity="1" data-original="#f0e8f9"/><path fill="#e2d2f7" d="M280.381 250.199h11.848v127.123h-11.848z" opacity="1" data-original="#e2d2f7"/><path fill="#f955af" d="M211.301 279.805h39.474v97.517h-39.474z" opacity="1" data-original="#f955af"/><path fill="#ef009f" d="M211.301 279.805h11.848v97.517h-11.848z" opacity="1" data-original="#ef009f"/><path fill="#61ceac" d="M349.461 210.725h39.474v166.597h-39.474z" opacity="1" data-original="#61ceac"/><path fill="#52c1a1" d="M349.461 210.725h11.848v166.597h-11.848z" opacity="1" data-original="#52c1a1"/><path fill="#61ceac" d="m438.796 37.565-51.762 8.994c-5.228.908-7.522 7.127-4.137 11.213l6.573 7.933.077.077-160.23 132.177-81.798-48.651a9.874 9.874 0 0 0-9.198-.473L39.87 194.454v39.435l101.409-46.955 85.392 50.788a9.874 9.874 0 0 0 11.33-.87L414.783 91.021l-.017-.019.052-.009-.034.028 6.817 7.477c3.678 4.034 10.362 2.409 11.777-2.864l13.274-49.472c1.306-4.875-2.884-9.46-7.856-8.597z" opacity="1" data-original="#61ceac"/><path fill="#52c1a1" d="M235.784 207.984 398.762 73.539c4.494-3.707 4.818-10.479.699-14.598l-1.222-1.222-.783-.945 47.964-6.026 1.231-4.587c1.308-4.874-2.882-9.46-7.855-8.596l-51.762 8.994c-5.228.908-7.522 7.127-4.137 11.213l6.573 7.933.077.077-160.23 132.177-81.798-48.651a9.874 9.874 0 0 0-9.198-.473L39.87 194.454v13.058l102.487-47.487 82.097 48.83a9.875 9.875 0 0 0 11.33-.871z" opacity="1" data-original="#52c1a1"/><path fill="#865acc" d="m318.058 360.364 32.542 4.62v77.997l-32.464 4.844c-5.625.839-11.124-2.078-13.626-7.186-6.649-13.572-16-41.851.141-73.336a13.013 13.013 0 0 1 13.407-6.939z" opacity="1" data-original="#865acc"/><path fill="#6a42ba" d="M316.51 428.638c-6.288-12.836-14.98-38.83-2.25-68.247a12.999 12.999 0 0 0-9.608 6.911c-16.141 31.485-6.79 59.764-.141 73.336 2.503 5.108 8.001 8.026 13.626 7.187l32.464-4.844v-10.209l-20.464 3.053c-5.626.839-11.124-2.078-13.627-7.187z" opacity="1" data-original="#6a42ba"/><path fill="#ffc0b3" d="M467.928 397.854c.151-4.282-1.652-8.404-4.8-11.298a14.772 14.772 0 0 0-6.631-3.505c6.574-1.408 9.525-4.182 10.257-10.132.522-4.253-.916-8.516-3.8-11.675a14.755 14.755 0 0 0-7.754-4.477c-14.615-3.172-25.372-3.93-33.287-3.275-15.936-6.212-12.294-18.267-12.294-18.267 7.482-26.131 1.154-40.097-4.572-46.863-3.695-4.366-9.256-7.034-14.934-6.452-13.321 1.364-13.595 17.358-12.899 25.27.737 8.381-.524 16.855-4.045 24.493-3.301 7.161-8.269 13.581-14.577 18.677-12.091 9.767-19.022 22.471-19.022 22.471s-25.445 43.634 11.031 70.16c15.102 13.328 43.756 13.632 59.882 12.57 1.699 1.27 3.786 2.119 6.191 2.353 5.909.637 14.223 2.062 20.103 1.383 19.097-1.694 17.77-13.176 17.77-13.176.139-3.934-2.21-7.73-5.033-10.566 15.85-2.538 13.955-12.816 13.955-12.816.151-4.283-1.652-8.404-4.8-11.298-.544-.5-1.124-.958-1.731-1.372 12.637-3.264 10.99-12.205 10.99-12.205z" opacity="1" data-original="#ffc0b3"/><path fill="#f9a395" d="M436.775 449.413c-5.879.679-14.193-.746-20.102-1.383-4.99-.485-8.614-3.61-10.222-7.681-3.003 7.904 1.552 16.711 10.222 17.554 5.909.637 14.223 2.062 20.102 1.383 19.097-1.694 17.77-13.176 17.77-13.176.061-1.722-.36-3.417-1.083-5.017-1.703 3.352-5.991 7.371-16.687 8.32zM462.726 417.709c-1.744 3.998-7.083 8.943-22.946 8.502-6.216-.173-6.98-.367-13.195-.569-14.86-.481-20.099-6.104-21.907-9.429-2.097 3.877-.923 7.449-.923 7.449s1.622 11.166 22.83 11.853c6.215.201 6.979.396 13.195.569 26.306.732 23.687-13.356 23.687-13.356a14.291 14.291 0 0 0-.741-5.019zM467.187 392.835c-1.744 3.998-7.083 8.943-22.945 8.502-6.216-.173-12.432-.367-18.647-.569-14.834-.48-20.081-6.084-21.898-9.411-2.071 3.895-.932 7.432-.932 7.432s1.622 11.166 22.83 11.853c6.215.201 12.431.396 18.647.569 26.305.732 23.687-13.356 23.687-13.356.06-1.725-.21-3.418-.742-5.02zM430.527 374.933c-20.61.588-27.271-6.063-29.428-10.498-1.432 3.306-1.038 6.063-1.038 6.063s-.223 15.184 30.467 14.309c25.83-.736 34.866-.81 36.227-11.887.276-2.249-.01-4.497-.754-6.587-2.824 7.807-12.507 7.945-35.474 8.6z" opacity="1" data-original="#f9a395"/><path fill="#f955af" d="M0 9.037h187.503v108.554H0z" opacity="1" data-original="#f955af"/><path fill="#865acc" d="M54.277 80.585c-5.997 0-11.277-3.059-14.373-7.7l-14.333 9.614c6.203 9.252 16.754 15.356 28.706 15.356 15.675 0 28.937-10.5 33.142-24.834L71.33 65.916c-1.257 8.301-8.402 14.669-17.053 14.669z" opacity="1" data-original="#865acc"/><path fill="#6a42ba" d="M80.218 69.841C77.3 81.395 66.819 89.973 54.371 89.973c-9.248 0-17.408-4.736-22.191-11.907l-6.609 4.433c6.203 9.252 16.754 15.356 28.706 15.356 15.675 0 28.937-10.5 33.142-24.834z" opacity="1" data-original="#6a42ba"/><path fill="#ffffff" d="M37.007 63.315c0-7.445 4.72-13.771 11.325-16.197l-7.265-15.712c-12.509 5.198-21.33 17.541-21.33 31.909a34.335 34.335 0 0 0 5.834 19.184l14.333-9.614a17.194 17.194 0 0 1-2.897-9.57z" opacity="1" data-original="#ffffff"/><path fill="#e2d2f7" d="m44.394 38.601-3.327-7.195c-12.509 5.198-21.33 17.541-21.33 31.909a34.335 34.335 0 0 0 5.834 19.184l6.609-4.433a26.505 26.505 0 0 1-4.467-14.751c0-11.173 6.912-20.756 16.681-24.714z" opacity="1" data-original="#e2d2f7"/><path fill="#ffc31a" d="M54.277 28.775c-4.677 0-9.138.939-13.21 2.631l7.265 15.712a17.19 17.19 0 0 1 5.945-1.073c9.538 0 17.27 7.732 17.27 17.27a17.3 17.3 0 0 1-.217 2.602l16.089 7.104a34.417 34.417 0 0 0 1.398-9.706c0-19.046-15.495-34.54-34.54-34.54z" opacity="1" data-original="#ffc31a"/><path fill="#ffaf00" d="M88.817 63.315c0-19.045-15.495-34.54-34.54-34.54-4.677 0-9.138.939-13.21 2.631l3.327 7.195a26.498 26.498 0 0 1 9.977-1.945c14.699 0 26.658 11.959 26.658 26.658a26.6 26.6 0 0 1-.811 6.526l7.201 3.18a34.41 34.41 0 0 0 1.398-9.705z" opacity="1" data-original="#ffaf00"/><path fill="#ffffff" d="M167.766 65.442h-59.212a2.127 2.127 0 1 1 0-4.254h59.212a2.127 2.127 0 1 1 0 4.254zM148.028 90.113h-39.474a2.127 2.127 0 1 1 0-4.254h39.474a2.127 2.127 0 1 1 0 4.254zM167.766 40.77h-59.212a2.127 2.127 0 1 1 0-4.254h59.212a2.127 2.127 0 1 1 0 4.254z" opacity="1" data-original="#ffffff"/></g></svg>