<svg xmlns="http://www.w3.org/2000/svg" version="1.1" xmlns:xlink="http://www.w3.org/1999/xlink" x="0" y="0" viewBox="0 0 64 64" style="enable-background:new 0 0 512 512" xml:space="preserve"><g><path fill="#ed6571" d="M32 54v8L8 55v-8z" opacity="1" data-original="#ed6571"/><path fill="#68607c" d="M56 47v8l-24 7v-8z" opacity="1" data-original="#68607c"/><path fill="#f69489" d="m32 40 24 7-24 7-24-7z" opacity="1" data-original="#f69489"/><path fill="#68607c" d="M31 23h2v25h-2z" opacity="1" data-original="#68607c"/><path fill="#68607c" d="m32 49.414-4.707-4.707 1.414-1.414L32 46.586l3.293-3.293 1.414 1.414zM42 39.414l-4.707-4.707 1.414-1.414L42 36.586l3.293-3.293 1.414 1.414z" opacity="1" data-original="#68607c"/><path fill="#68607c" d="M43 38h-2v-4c0-2.757 2.243-5 5-5h3c1.654 0 3-1.346 3-3v-3h2v3c0 2.757-2.243 5-5 5h-3c-1.654 0-3 1.346-3 3zM22 39.414l-4.707-4.707 1.414-1.414L22 36.586l3.293-3.293 1.414 1.414z" opacity="1" data-original="#68607c"/><path fill="#68607c" d="M23 38h-2v-4c0-1.654-1.346-3-3-3h-3c-2.757 0-5-2.243-5-5v-3h2v3c0 1.654 1.346 3 3 3h3c2.757 0 5 2.243 5 5z" opacity="1" data-original="#68607c"/><path fill="#91cbd7" d="M45 25V3h10l6 6v16z" opacity="1" data-original="#91cbd7"/><path fill="#4e9bb9" d="M61 9h-6V3z" opacity="1" data-original="#4e9bb9"/><path fill="#91cbd7" d="M24 25V3h10l6 6v16zM3 25V3h10l6 6v16z" opacity="1" data-original="#91cbd7"/><path fill="#4e9bb9" d="M40 9h-6V3zM19 9h-6V3z" opacity="1" data-original="#4e9bb9"/><g fill="#68607c"><path d="M27 12h10v2H27zM27 16h10v2H27zM27 8h4v2h-4zM6 12h10v2H6zM6 16h10v2H6zM6 20h10v2H6zM6 8h4v2H6zM48 12h10v2H48zM48 16h10v2H48zM48 20h10v2H48zM48 8h4v2h-4zM27 20h2v2h-2zM31 20h2v2h-2zM35 20h2v2h-2z" fill="#68607c" opacity="1" data-original="#68607c"/></g></g></svg>