<svg xmlns="http://www.w3.org/2000/svg" version="1.1" xmlns:xlink="http://www.w3.org/1999/xlink" x="0" y="0" viewBox="0 0 512 512" style="enable-background:new 0 0 512 512" xml:space="preserve"><g><path fill="#acbadf" d="M486.687 401.04c0-13.108 7.82-24.429 18.991-29.493-2.16-8.417-5.511-16.312-9.682-23.834-11.469 4.32-25.024 1.936-34.334-7.299-9.235-9.31-11.618-22.863-7.373-34.333-7.448-4.171-15.342-7.522-23.758-9.757-5.064 11.172-16.236 19.066-29.418 19.066-13.108 0-24.428-7.895-29.493-19.066-8.415 2.382-16.385 5.586-23.832 9.757 4.319 11.692 1.936 25.023-7.374 34.333-9.235 9.235-22.715 11.619-34.334 7.299-4.096 7.522-7.448 15.417-9.682 23.834 11.172 5.138 18.917 16.385 18.917 29.493 0 13.033-7.745 24.278-18.917 29.418 2.383 8.415 5.66 16.385 9.682 23.683 11.618-4.171 25.099-1.787 34.334 7.448 9.31 9.31 11.693 22.79 7.374 34.409a117.457 117.457 0 0 0 23.832 9.681c5.139-11.172 16.385-18.917 29.493-18.917 12.959 0 24.354 7.746 29.418 18.917 8.416-2.233 16.31-5.586 23.758-9.681-4.245-11.544-1.862-25.1 7.373-34.409 9.31-9.235 22.864-11.619 34.334-7.448 4.171-7.299 7.299-15.268 9.682-23.683-11.171-5.064-18.991-16.235-18.991-29.418zm-85.648 25.164c-13.894 0-25.18-11.286-25.18-25.224 0-13.894 11.286-25.18 25.18-25.18 13.939 0 25.18 11.286 25.18 25.18 0 13.938-11.241 25.224-25.18 25.224z" opacity="1" data-original="#acbadf"/><path d="M486.687 401.113c0-13.108 7.82-24.429 18.991-29.493-2.16-8.415-5.511-16.385-9.682-23.907-8.565 3.277-18.247 2.755-26.514-1.564-3.202 64.124-56.23 115.215-121.174 115.215-2.83 0-5.66-.075-8.49-.298.224.149.372.298.596.522 9.31 9.31 11.693 22.863 7.373 34.482 7.448 4.022 15.417 7.299 23.833 9.608 5.139-11.172 16.385-18.917 29.493-18.917 12.959 0 24.354 7.746 29.418 18.917 8.416-2.16 16.31-5.586 23.758-9.608-4.245-11.544-1.862-25.172 7.373-34.482 9.31-9.237 22.864-11.619 34.334-7.448 4.171-7.226 7.299-15.268 9.682-23.61-11.171-5.063-18.991-16.235-18.991-29.417z" opacity="1" fill="#00000012" data-original="#00000012"/><path fill="#acbadf" d="m107.3 370.394 59.862-59.862 26.77 26.77-59.863 59.862z" opacity="1" data-original="#acbadf"/><path fill="#475da9" d="M441.88 334.774c-75.16 75.16-196.999 75.16-272.119.041-75.161-75.16-75.161-196.998 0-272.158 75.12-75.12 196.958-75.12 272.119.04 75.119 75.119 75.12 196.957 0 272.077z" opacity="1" data-original="#475da9"/><path d="M441.863 334.763c-75.162 75.161-196.983 75.161-272.086.059-12.282-12.34-22.566-25.915-30.852-40.312 73.516 42.311 168.952 32.027 231.831-30.852 62.821-62.821 73.105-158.315 30.852-231.831a193.114 193.114 0 0 1 40.255 30.852c75.162 75.16 75.162 196.981 0 272.084z" opacity="1" fill="#00000010" data-original="#00000010"/><path fill="#e8f1f8" d="M200.079 304.495c-58.316-58.315-58.316-153.202.002-211.519 58.293-58.293 153.162-58.275 211.477.04 58.293 58.293 58.295 153.144.002 211.438-58.318 58.317-153.188 58.334-211.481.041z" opacity="1" data-original="#e8f1f8"/><path d="M411.54 304.439c-58.296 58.354-153.144 58.354-211.44.059-5.23-5.171-9.931-10.696-14.221-16.396 58.531 43.428 141.861 38.55 194.868-14.456 53.066-53.066 57.826-136.395 14.28-194.925a150.376 150.376 0 0 1 16.513 14.28c58.296 58.295 58.296 153.143 0 211.438z" opacity="1" fill="#00000010" data-original="#00000010"/><path fill="#474747" d="m55.157 493.241 107.388-107.388c6.636-6.636 6.636-17.394 0-24.029l-19.829-19.829c-6.636-6.636-17.394-6.636-24.03 0L11.298 449.382c-6.636 6.636-6.636 17.394 0 24.03l19.829 19.829c6.636 6.635 17.394 6.635 24.03 0z" opacity="1" data-original="#474747"/><path fill="#f78721" d="M320.548 125.273H166.882c-11.975-31.095-42.165-53.184-77.488-53.184-45.889 0-83.073 37.234-83.073 83.073 0 45.889 37.184 83.073 83.073 83.073 35.373 0 65.563-22.089 77.538-53.235h26.97l19.724-17.41 17.611 15.548 17.611-15.548 17.661 15.548 17.611-15.548L303.843 185h16.705l35.926-29.838zM67.657 176.898c-12.025 0-21.787-9.761-21.787-21.736 0-12.026 9.761-21.787 21.787-21.787 11.975 0 21.737 9.761 21.737 21.787 0 11.975-9.761 21.736-21.737 21.736z" opacity="1" data-original="#f78721"/></g></svg>